<?xml version="1.0" encoding="utf-8"?>
<!-- Generator: Adobe Illustrator 16.0.0, SVG Export Plug-In . SVG Version: 6.00 Build 0)  -->
<!DOCTYPE svg PUBLIC "-//W3C//DTD SVG 1.1//EN" "http://www.w3.org/Graphics/SVG/1.1/DTD/svg11.dtd">
<svg version="1.1" id="Layer_1" xmlns="http://www.w3.org/2000/svg" xmlns:xlink="http://www.w3.org/1999/xlink" x="0px" y="0px"
	 width="534.231px" height="60.42px" viewBox="0 0 534.231 60.42" enable-background="new 0 0 534.231 60.42" xml:space="preserve">
<g>
	<path fill="#1C1B1B" d="M47.28,43.14c0,0.24-0.04,0.36-0.12,0.36c-1.281,0-2.301-0.02-3.06-0.06l-4.26-0.06l-4.02,0.06
		C35.139,43.48,34.2,43.5,33,43.5c-0.12,0-0.18-0.12-0.18-0.36c0-0.24,0.06-0.36,0.18-0.36c1.76,0,2.949-0.2,3.57-0.6
		c0.62-0.399,0.93-1.24,0.93-2.52l-0.06-1.02l-1.14-26.4L23.04,43.08c-0.081,0.16-0.24,0.24-0.48,0.24c-0.24,0-0.4-0.08-0.48-0.24
		L7.14,12.48L6.66,36.6C6.62,38.721,7,40.281,7.8,41.28c0.8,1,2.1,1.5,3.9,1.5c0.12,0,0.18,0.12,0.18,0.36
		c0,0.24-0.06,0.36-0.18,0.36c-1.08,0-1.92-0.02-2.52-0.06l-3.3-0.06l-3.3,0.06C2.02,43.48,1.2,43.5,0.12,43.5
		C0.04,43.5,0,43.38,0,43.14c0-0.24,0.04-0.36,0.12-0.36c3.32,0,5-2.06,5.04-6.18L5.7,9.72c-1.281-2-3-3-5.16-3
		c-0.081,0-0.12-0.12-0.12-0.36C0.42,6.12,0.459,6,0.54,6l2.4,0.06C3.42,6.1,4.04,6.12,4.8,6.12c0.879,0,1.6-0.02,2.16-0.06
		C7.52,6.021,7.959,6,8.28,6c0.52,0,0.939,0.18,1.26,0.54c0.32,0.36,0.819,1.221,1.5,2.58l13.32,27.06L36.9,7.5
		c0.399-1,1-1.5,1.8-1.5c0.24,0,0.56,0.021,0.96,0.06c0.399,0.04,0.919,0.06,1.56,0.06l3.06-0.06c0.48-0.04,1.18-0.06,2.1-0.06
		c0.12,0,0.18,0.12,0.18,0.36c0,0.24-0.06,0.36-0.18,0.36c-1.96,0-3.37,0.32-4.23,0.96c-0.86,0.64-1.27,1.76-1.23,3.36l1.32,27.6
		c0.08,1.24,0.24,2.14,0.48,2.7c0.24,0.561,0.68,0.94,1.32,1.14c0.639,0.201,1.68,0.3,3.12,0.3C47.24,42.78,47.28,42.9,47.28,43.14z
		"/>
	<path fill="#1C1B1B" d="M55.38,42.57c-1.8-1.14-3.19-2.679-4.17-4.62c-0.98-1.94-1.47-4.05-1.47-6.33c0-2.6,0.639-4.81,1.92-6.63
		c1.28-1.82,2.919-3.18,4.92-4.08c2-0.9,4.04-1.35,6.12-1.35c2.36,0,4.44,0.58,6.24,1.74c1.8,1.161,3.18,2.691,4.14,4.59
		c0.96,1.9,1.44,3.91,1.44,6.03c0,2.44-0.59,4.601-1.77,6.48c-1.18,1.881-2.75,3.33-4.71,4.35c-1.96,1.02-4.101,1.53-6.42,1.53
		C59.259,44.28,57.18,43.71,55.38,42.57z M67.979,40.8c1.08-1.56,1.62-3.9,1.62-7.02c0-2.6-0.39-4.89-1.17-6.87
		c-0.78-1.98-1.851-3.5-3.21-4.56c-1.36-1.06-2.88-1.59-4.56-1.59c-1.96,0-3.471,0.75-4.53,2.25c-1.061,1.5-1.59,3.711-1.59,6.63
		c0,2.52,0.38,4.81,1.14,6.87c0.759,2.061,1.81,3.681,3.15,4.86c1.34,1.18,2.85,1.77,4.53,1.77
		C65.359,43.14,66.899,42.36,67.979,40.8z"/>
	<path fill="#1C1B1B" d="M95.22,20.61c0.8,0.54,1.2,1.191,1.2,1.95c0,0.6-0.2,1.11-0.6,1.53c-0.4,0.42-0.94,0.63-1.62,0.63
		c-0.4,0-0.741-0.07-1.02-0.21c-0.28-0.14-0.521-0.3-0.72-0.48c-0.2-0.18-0.34-0.29-0.42-0.33c-0.32-0.32-0.63-0.57-0.93-0.75
		c-0.3-0.18-0.67-0.27-1.11-0.27c-0.48,0-1,0.19-1.56,0.57c-0.561,0.381-1.4,1.21-2.52,2.49v12.9c0,1.161,0.15,2.03,0.45,2.61
		c0.3,0.58,0.85,0.98,1.65,1.2c0.8,0.22,2,0.33,3.6,0.33c0.12,0,0.18,0.12,0.18,0.36c0,0.24-0.06,0.36-0.18,0.36
		c-1.32,0-2.38-0.02-3.18-0.06l-4.56-0.06l-3.36,0.06c-0.561,0.041-1.32,0.06-2.28,0.06c-0.12,0-0.18-0.12-0.18-0.36
		c0-0.24,0.06-0.36,0.18-0.36c1.44,0,2.39-0.27,2.85-0.81c0.459-0.54,0.69-1.65,0.69-3.33v-11.7c0-1.32-0.15-2.27-0.45-2.85
		c-0.3-0.579-0.81-0.87-1.53-0.87c-0.76,0-1.821,0.28-3.18,0.84H76.5c-0.12,0-0.21-0.1-0.27-0.3c-0.06-0.199-0.03-0.319,0.09-0.36
		l7.44-3.54c0.08-0.039,0.2-0.06,0.36-0.06c0.399,0,0.79,0.441,1.17,1.32c0.38,0.88,0.59,2.04,0.63,3.48
		c1.64-1.839,2.95-3.1,3.93-3.78c0.98-0.68,1.91-1.02,2.79-1.02C93.56,19.8,94.419,20.07,95.22,20.61z"/>
	<path fill="#1C1B1B" d="M116.399,42.51c1.399,0.34,2.64,0.99,3.72,1.95s1.62,2.34,1.62,4.14c0,1.92-0.681,3.8-2.04,5.64
		c-1.36,1.839-3.201,3.33-5.52,4.47c-2.32,1.14-4.8,1.71-7.44,1.71c-2.88,0-5.21-0.67-6.99-2.01c-1.78-1.341-2.67-3.051-2.67-5.13
		c0-1.521,0.53-3.03,1.59-4.53c1.059-1.5,2.73-3.051,5.01-4.65c-2.64-0.8-3.96-2.18-3.96-4.14c0-1.08,0.399-2.169,1.2-3.27
		c0.799-1.1,1.899-2.07,3.3-2.91c-1.601-0.56-2.85-1.449-3.75-2.67c-0.9-1.22-1.35-2.55-1.35-3.99c0-2.16,0.95-3.9,2.85-5.22
		c1.899-1.32,4.17-1.98,6.81-1.98c2.6,0,4.68,0.621,6.24,1.86c2.24-1.32,4.4-1.98,6.48-1.98c0.12,0,0.21,0.15,0.27,0.45
		s0.09,0.63,0.09,0.99c0,0.561-0.06,1.101-0.18,1.62c-0.12,0.521-0.261,0.741-0.42,0.66c-1.56-0.639-2.94-0.96-4.14-0.96
		c-0.24,0-0.64,0.04-1.2,0.12c1.08,1.2,1.62,2.601,1.62,4.2c0,1.401-0.42,2.67-1.26,3.81c-0.84,1.14-1.99,2.04-3.45,2.7
		c-1.46,0.66-3.05,0.99-4.77,0.99c-1.161,0-2.181-0.12-3.06-0.36c-1.28,0.88-1.92,2.021-1.92,3.42c0,1.24,0.6,2.11,1.8,2.61
		c1.2,0.501,2.959,0.93,5.28,1.29C112.919,41.781,114.998,42.17,116.399,42.51z M115.708,56.46c1.54-1.44,2.31-3.201,2.31-5.28
		c0-1.56-0.48-2.76-1.44-3.6s-2.07-1.41-3.33-1.71c-1.26-0.3-3.09-0.63-5.49-0.99c-0.76-0.081-1.701-0.24-2.82-0.48
		c-1.12,0.84-2,1.779-2.64,2.82c-0.641,1.04-0.96,2.319-0.96,3.84c0,2.36,0.729,4.209,2.19,5.55c1.459,1.34,3.41,2.01,5.85,2.01
		C112.058,58.62,114.168,57.9,115.708,56.46z M104.519,22.08c-0.64,0.801-0.96,2.02-0.96,3.66c0,2.24,0.57,4.09,1.71,5.55
		c1.14,1.46,2.529,2.19,4.17,2.19c1.04,0,1.91-0.429,2.61-1.29c0.699-0.86,1.05-2.19,1.05-3.99c0-2.12-0.6-3.87-1.8-5.25
		c-1.2-1.38-2.601-2.07-4.2-2.07C106.019,20.88,105.158,21.28,104.519,22.08z"/>
	<path fill="#1C1B1B" d="M145.859,40.26c0.159,0,0.27,0.09,0.33,0.27c0.06,0.18,0.009,0.311-0.15,0.39l-6.18,2.94
		c-0.16,0.08-0.34,0.12-0.54,0.12c-0.52,0-1.011-0.33-1.47-0.99c-0.46-0.66-0.771-1.57-0.93-2.73l-3.42,1.86
		c-2.28,1.2-4.18,1.8-5.7,1.8c-1.24,0-2.21-0.33-2.91-0.99c-0.701-0.66-1.05-1.53-1.05-2.61c0-1.16,0.429-2.06,1.29-2.7
		c0.86-0.64,2.45-1.359,4.77-2.16l6.9-2.4V28.2c0-2.56-0.31-4.39-0.93-5.49c-0.621-1.1-1.511-1.65-2.67-1.65
		c-1.24,0-2.21,0.45-2.91,1.35c-0.701,0.9-1.131,2.07-1.29,3.51c-0.161,1.761-1.041,2.64-2.64,2.64c-0.72,0-1.281-0.18-1.68-0.54
		c-0.4-0.36-0.6-0.86-0.6-1.5c0-0.96,0.63-1.97,1.89-3.03c1.26-1.06,2.77-1.94,4.53-2.64c1.76-0.7,3.339-1.05,4.74-1.05
		c1.68,0,3.04,0.55,4.08,1.65c1.04,1.101,1.56,2.75,1.56,4.95v10.62c0,1.32,0.189,2.301,0.57,2.94c0.38,0.64,0.97,0.96,1.77,0.96
		c0.72,0,1.58-0.219,2.58-0.66H145.859z M136.799,39.36v-0.6V33.9l-5.28,1.98c-0.96,0.36-1.65,0.771-2.07,1.23
		c-0.42,0.46-0.63,1.03-0.63,1.71c0,0.84,0.24,1.5,0.72,1.98s1.1,0.72,1.86,0.72c0.879,0,1.76-0.24,2.64-0.72L136.799,39.36z"/>
	<path fill="#1C1B1B" d="M175.379,43.14c0,0.24-0.06,0.36-0.18,0.36c-0.96,0-1.74-0.02-2.34-0.06l-3.3-0.06l-3.3,0.06
		c-0.6,0.041-1.38,0.06-2.34,0.06c-0.12,0-0.18-0.12-0.18-0.36c0-0.24,0.06-0.36,0.18-0.36c1.44,0,2.39-0.27,2.85-0.81
		c0.459-0.54,0.69-1.65,0.69-3.33v-9.36c0-2.319-0.42-4.02-1.26-5.1c-0.84-1.08-2.181-1.62-4.02-1.62c-1.12,0-2.28,0.28-3.48,0.84
		c-1.2,0.561-2.28,1.341-3.24,2.34v12.9c0,1.68,0.23,2.79,0.69,3.33c0.459,0.54,1.43,0.81,2.91,0.81c0.12,0,0.18,0.12,0.18,0.36
		c0,0.24-0.06,0.36-0.18,0.36c-0.96,0-1.74-0.02-2.34-0.06l-3.3-0.06l-3.36,0.06c-0.561,0.041-1.32,0.06-2.28,0.06
		c-0.12,0-0.18-0.12-0.18-0.36c0-0.24,0.06-0.36,0.18-0.36c1.44,0,2.39-0.27,2.85-0.81c0.459-0.54,0.69-1.65,0.69-3.33v-11.7
		c0-1.32-0.15-2.27-0.45-2.85c-0.3-0.579-0.81-0.87-1.53-0.87c-0.76,0-1.821,0.28-3.18,0.84h-0.12c-0.12,0-0.21-0.1-0.27-0.3
		c-0.06-0.199-0.03-0.319,0.09-0.36l7.44-3.54c0.08-0.039,0.2-0.06,0.36-0.06c0.399,0,0.79,0.45,1.17,1.35
		c0.38,0.9,0.59,2.07,0.63,3.51c2.919-3.399,5.979-5.1,9.18-5.1c2.199,0,3.91,0.65,5.13,1.95c1.22,1.301,1.83,3.111,1.83,5.43v11.7
		c0,1.68,0.23,2.79,0.69,3.33c0.459,0.54,1.43,0.81,2.91,0.81C175.319,42.78,175.379,42.9,175.379,43.14z"/>
	<path fill="#1C1B1B" d="M216.838,25.62c1.959,1.88,2.94,4.18,2.94,6.9c0,2.121-0.55,4.03-1.65,5.73
		c-1.101,1.701-2.601,3.041-4.5,4.02c-1.9,0.98-4.031,1.47-6.39,1.47c-1.281,0-2.68-0.06-4.2-0.18
		c-0.561-0.041-1.221-0.08-1.98-0.12c-0.76-0.04-1.62-0.06-2.58-0.06l-4.2,0.06c-0.76,0.041-1.78,0.06-3.06,0.06
		c-0.12,0-0.18-0.12-0.18-0.36c0-0.24,0.06-0.36,0.18-0.36c1.399,0,2.43-0.109,3.09-0.33c0.66-0.22,1.13-0.609,1.41-1.17
		c0.279-0.56,0.42-1.44,0.42-2.64V10.86c0-1.2-0.13-2.079-0.39-2.64c-0.26-0.56-0.72-0.95-1.38-1.17
		c-0.66-0.219-1.69-0.33-3.09-0.33c-0.081,0-0.12-0.12-0.12-0.36c0-0.24,0.04-0.36,0.12-0.36l3,0.06c1.76,0.081,3.159,0.12,4.2,0.12
		c1.08,0,2.26-0.06,3.54-0.18c0.44-0.04,0.97-0.08,1.59-0.12c0.62-0.039,1.29-0.06,2.01-0.06c3.44,0,6.06,0.711,7.86,2.13
		c1.8,1.42,2.7,3.33,2.7,5.73c0,1.92-0.621,3.65-1.86,5.19c-1.241,1.54-2.98,2.71-5.22,3.51
		C212.298,22.66,214.878,23.74,216.838,25.62z M202.288,7.14c-0.5,0.201-0.86,0.59-1.08,1.17c-0.22,0.58-0.33,1.47-0.33,2.67v11.4
		l2.64,0.06c2.64,0,4.62-0.759,5.94-2.28c1.32-1.52,1.98-3.52,1.98-6c0-2.28-0.57-4.07-1.71-5.37c-1.14-1.299-2.89-1.95-5.25-1.95
		C203.518,6.84,202.788,6.94,202.288,7.14z M212.608,40.32c1.38-1.479,2.07-3.6,2.07-6.36c0-3.04-0.84-5.479-2.52-7.32
		c-1.68-1.839-4.061-2.78-7.14-2.82c-1.08-0.039-2.46,0-4.14,0.12v14.7c0,1,0.14,1.77,0.42,2.31c0.279,0.54,0.799,0.94,1.56,1.2
		c0.759,0.261,1.899,0.39,3.42,0.39C209.118,42.54,211.228,41.8,212.608,40.32z"/>
	<path fill="#1C1B1B" d="M246.897,40.26c0.159,0,0.27,0.09,0.33,0.27c0.06,0.18,0.009,0.311-0.15,0.39l-6.18,2.94
		c-0.16,0.08-0.34,0.12-0.54,0.12c-0.52,0-1.011-0.33-1.47-0.99c-0.46-0.66-0.771-1.57-0.93-2.73l-3.42,1.86
		c-2.28,1.2-4.18,1.8-5.7,1.8c-1.24,0-2.21-0.33-2.91-0.99c-0.701-0.66-1.05-1.53-1.05-2.61c0-1.16,0.429-2.06,1.29-2.7
		c0.86-0.64,2.45-1.359,4.77-2.16l6.9-2.4V28.2c0-2.56-0.31-4.39-0.93-5.49c-0.621-1.1-1.511-1.65-2.67-1.65
		c-1.24,0-2.21,0.45-2.91,1.35c-0.701,0.9-1.131,2.07-1.29,3.51c-0.161,1.761-1.041,2.64-2.64,2.64c-0.72,0-1.281-0.18-1.68-0.54
		c-0.4-0.36-0.6-0.86-0.6-1.5c0-0.96,0.63-1.97,1.89-3.03c1.26-1.06,2.77-1.94,4.53-2.64c1.76-0.7,3.339-1.05,4.74-1.05
		c1.68,0,3.04,0.55,4.08,1.65c1.04,1.101,1.56,2.75,1.56,4.95v10.62c0,1.32,0.189,2.301,0.57,2.94c0.38,0.64,0.97,0.96,1.77,0.96
		c0.72,0,1.58-0.219,2.58-0.66H246.897z M237.837,39.36v-0.6V33.9l-5.28,1.98c-0.96,0.36-1.65,0.771-2.07,1.23
		c-0.42,0.46-0.63,1.03-0.63,1.71c0,0.84,0.24,1.5,0.72,1.98s1.1,0.72,1.86,0.72c0.879,0,1.76-0.24,2.64-0.72L237.837,39.36z"/>
	<path fill="#1C1B1B" d="M275.637,43.14c0,0.24-0.04,0.36-0.12,0.36c-1,0-1.78-0.02-2.34-0.06l-3.36-0.06l-4.38,0.06
		c-0.641,0.041-1.521,0.06-2.64,0.06c-0.12,0-0.18-0.12-0.18-0.36c0-0.24,0.06-0.36,0.18-0.36c1.8,0,2.7-0.399,2.7-1.2
		c0-0.36-0.18-0.78-0.54-1.26l-7.14-9.66l-2.46,2.04v5.94c0,1.68,0.24,2.79,0.72,3.33c0.48,0.54,1.46,0.81,2.94,0.81
		c0.12,0,0.18,0.12,0.18,0.36c0,0.24-0.06,0.36-0.18,0.36c-1,0-1.78-0.02-2.34-0.06l-3.3-0.06l-3.42,0.06
		c-0.561,0.041-1.32,0.06-2.28,0.06c-0.081,0-0.12-0.12-0.12-0.36c0-0.24,0.04-0.36,0.12-0.36c1.479,0,2.45-0.27,2.91-0.81
		c0.459-0.54,0.69-1.65,0.69-3.33V7.8c0-1.44-0.13-2.469-0.39-3.09c-0.261-0.62-0.73-0.93-1.41-0.93c-0.72,0-1.601,0.261-2.64,0.78
		h-0.12c-0.12,0-0.22-0.1-0.3-0.3c-0.081-0.199-0.06-0.319,0.06-0.36l7.92-3.84l0.3-0.06c0.159,0,0.31,0.06,0.45,0.18
		c0.14,0.12,0.21,0.26,0.21,0.42v31.02l7.26-6.24c1.2-1.04,1.8-1.939,1.8-2.7c0-0.48-0.261-0.87-0.78-1.17
		c-0.52-0.3-1.281-0.45-2.28-0.45c-0.081,0-0.12-0.12-0.12-0.36c0-0.24,0.04-0.36,0.12-0.36c1.119,0,2,0.021,2.64,0.06l4.44,0.06
		l4.08-0.06c0.56-0.039,1.32-0.06,2.28-0.06c0.08,0,0.12,0.12,0.12,0.36c0,0.24-0.041,0.36-0.12,0.36c-1.56,0-3.311,0.38-5.25,1.14
		c-1.941,0.76-3.81,1.9-5.61,3.42l-3.06,2.52l7.8,10.5c2.04,2.76,4.32,4.14,6.84,4.14C275.597,42.78,275.637,42.9,275.637,43.14z"/>
	<path fill="#1C1B1B" d="M295.978,39.96c0.12,0,0.23,0.07,0.33,0.21c0.1,0.141,0.11,0.27,0.03,0.39
		c-1.401,1.281-2.831,2.21-4.29,2.79c-1.461,0.579-3.03,0.87-4.71,0.87c-2.4,0-4.47-0.531-6.21-1.59
		c-1.74-1.059-3.06-2.469-3.96-4.23c-0.9-1.76-1.35-3.66-1.35-5.7c0-2.36,0.57-4.53,1.71-6.51s2.72-3.54,4.74-4.68
		c2.02-1.14,4.25-1.71,6.69-1.71c2.239,0,3.979,0.531,5.22,1.59c1.239,1.06,1.86,2.51,1.86,4.35c0,1-0.22,1.5-0.66,1.5h-2.88
		l-11.82,0.12c-0.16,0.801-0.24,1.78-0.24,2.94c0,3.441,0.83,6.221,2.49,8.34c1.659,2.121,3.95,3.18,6.87,3.18
		c2.319,0,4.359-0.62,6.12-1.86H295.978z M283.078,22.41c-1.041,0.94-1.78,2.271-2.22,3.99l10.32-0.24
		c-0.04-1.6-0.44-2.859-1.2-3.78c-0.76-0.919-1.8-1.38-3.12-1.38C285.377,21,284.118,21.471,283.078,22.41z"/>
	<path fill="#1C1B1B" d="M317.038,20.61c0.8,0.54,1.2,1.191,1.2,1.95c0,0.6-0.2,1.11-0.6,1.53c-0.4,0.42-0.94,0.63-1.62,0.63
		c-0.4,0-0.741-0.07-1.02-0.21c-0.28-0.14-0.521-0.3-0.72-0.48c-0.2-0.18-0.34-0.29-0.42-0.33c-0.32-0.32-0.63-0.57-0.93-0.75
		c-0.3-0.18-0.67-0.27-1.11-0.27c-0.48,0-1,0.19-1.56,0.57c-0.561,0.381-1.4,1.21-2.52,2.49v12.9c0,1.161,0.15,2.03,0.45,2.61
		c0.3,0.58,0.85,0.98,1.65,1.2c0.8,0.22,2,0.33,3.6,0.33c0.12,0,0.18,0.12,0.18,0.36c0,0.24-0.06,0.36-0.18,0.36
		c-1.32,0-2.38-0.02-3.18-0.06l-4.56-0.06l-3.36,0.06c-0.561,0.041-1.32,0.06-2.28,0.06c-0.12,0-0.18-0.12-0.18-0.36
		c0-0.24,0.06-0.36,0.18-0.36c1.44,0,2.39-0.27,2.85-0.81c0.459-0.54,0.69-1.65,0.69-3.33v-11.7c0-1.32-0.15-2.27-0.45-2.85
		c-0.3-0.579-0.81-0.87-1.53-0.87c-0.76,0-1.821,0.28-3.18,0.84h-0.12c-0.12,0-0.21-0.1-0.27-0.3c-0.06-0.199-0.03-0.319,0.09-0.36
		l7.44-3.54c0.08-0.039,0.2-0.06,0.36-0.06c0.399,0,0.79,0.441,1.17,1.32c0.38,0.88,0.59,2.04,0.63,3.48
		c1.64-1.839,2.95-3.1,3.93-3.78c0.98-0.68,1.91-1.02,2.79-1.02C315.377,19.8,316.237,20.07,317.038,20.61z"/>
	<path fill="#808080" d="M342.956,43.56c-0.48-0.041-1.071-0.08-1.77-0.12c-0.7-0.04-1.491-0.06-2.37-0.06l-3.72,0.06
		c-0.6,0.041-1.44,0.06-2.52,0.06c-0.12,0-0.18-0.12-0.18-0.36c0-0.24,0.06-0.36,0.18-0.36c1.239,0,2.16-0.099,2.76-0.3
		c0.6-0.2,1.06-0.59,1.38-1.17c0.32-0.58,0.58-1.47,0.78-2.67l4.92-27.78c0.159-0.68,0.24-1.32,0.24-1.92
		c0-0.879-0.26-1.47-0.78-1.77c-0.521-0.3-1.48-0.45-2.88-0.45c-0.081,0-0.12-0.12-0.12-0.36c0-0.24,0.04-0.36,0.12-0.36l2.64,0.06
		c1.52,0.081,2.76,0.12,3.72,0.12c1.16,0,2.379-0.06,3.66-0.18c1.52-0.08,2.58-0.12,3.18-0.12c3.24,0,6.069,0.621,8.49,1.86
		c2.419,1.24,4.28,2.97,5.58,5.19c1.299,2.22,1.95,4.77,1.95,7.65c0,1.36-0.1,2.541-0.3,3.54c-0.681,3.84-2.121,7.25-4.32,10.23
		c-2.201,2.98-4.83,5.29-7.89,6.93c-3.06,1.641-6.19,2.46-9.39,2.46C345.356,43.74,344.236,43.68,342.956,43.56z M353.516,40.74
		c2.319-1.359,4.29-3.34,5.91-5.94c1.62-2.6,2.75-5.72,3.39-9.36c0.279-1.52,0.42-3.099,0.42-4.74c0-4.08-0.94-7.41-2.82-9.99
		c-1.881-2.58-4.641-3.87-8.28-3.87c-1.84,0-3.15,0.28-3.93,0.84c-0.78,0.561-1.311,1.66-1.59,3.3l-4.74,27
		c-0.12,0.64-0.18,1.24-0.18,1.8c0,1.041,0.32,1.8,0.96,2.28c0.64,0.48,1.76,0.72,3.36,0.72
		C348.695,42.78,351.196,42.1,353.516,40.74z"/>
	<path fill="#808080" d="M386.997,20.31c0.759,0.5,1.14,1.17,1.14,2.01c0,1.881-1.371,3.591-4.11,5.13
		c-2.74,1.54-6.05,2.65-9.93,3.33c-0.161,0.96-0.24,2.001-0.24,3.12c0,2.44,0.53,4.401,1.59,5.88c1.059,1.48,2.61,2.22,4.65,2.22
		c2.199,0,4.14-0.66,5.82-1.98h0.06c0.12,0,0.229,0.06,0.33,0.18c0.099,0.12,0.109,0.24,0.03,0.36c-2.84,2.44-5.82,3.66-8.94,3.66
		c-2.64,0-4.62-0.82-5.94-2.46c-1.32-1.64-1.98-3.759-1.98-6.36c0-0.879,0.1-1.879,0.3-3c0.399-2.079,1.27-4.11,2.61-6.09
		c1.339-1.98,3.009-3.6,5.01-4.86c2-1.26,4.12-1.89,6.36-1.89C385.156,19.56,386.236,19.811,386.997,20.31z M383.517,23.28
		c0-0.68-0.25-1.2-0.75-1.56c-0.5-0.36-1.11-0.54-1.83-0.54c-1.641,0-3.04,0.81-4.2,2.43c-1.16,1.62-2,3.73-2.52,6.33
		c5.52-1.04,8.58-3,9.18-5.88C383.476,23.661,383.517,23.4,383.517,23.28z"/>
	<path fill="#808080" d="M394.915,42.24c-1.041-1.359-1.56-2.979-1.56-4.86c0-1.32,0.279-2.7,0.84-4.14
		c0.56-1.44,1.359-3.2,2.4-5.28l1.26-2.52c0.2-0.48,0.3-0.819,0.3-1.02c0-0.36-0.26-0.54-0.78-0.54h-3c-1.48,0-2.5,0.19-3.06,0.57
		c-0.561,0.38-1.041,1.17-1.44,2.37c-0.041,0.12-0.16,0.18-0.36,0.18c-0.12,0-0.21-0.04-0.27-0.12c-0.06-0.08-0.07-0.18-0.03-0.3
		c0.64-1.839,1.18-3.18,1.62-4.02c0.44-0.84,0.99-1.43,1.65-1.77c0.66-0.339,1.59-0.51,2.79-0.51h5.4c0.44,0,0.66,0.081,0.66,0.24
		c0,0.081-0.06,0.24-0.18,0.48c-2.32,5.32-3.68,9.48-4.08,12.48c-0.081,0.44-0.12,1.041-0.12,1.8c0,1.721,0.379,3.07,1.14,4.05
		c0.759,0.98,1.8,1.47,3.12,1.47c1.76,0,3.45-0.849,5.07-2.55c1.62-1.7,2.73-3.87,3.33-6.51c0.24-1.08,0.36-2,0.36-2.76
		c0-1.08-0.16-1.92-0.48-2.52c-0.321-0.6-0.78-1.22-1.38-1.86c-0.081-0.08-0.261-0.27-0.54-0.57c-0.28-0.3-0.501-0.609-0.66-0.93
		c-0.16-0.32-0.24-0.66-0.24-1.02c0-0.759,0.26-1.34,0.78-1.74c0.52-0.399,1.14-0.6,1.86-0.6c1,0,1.729,0.49,2.19,1.47
		c0.459,0.98,0.689,2.331,0.689,4.05c0,0.96-0.06,1.98-0.18,3.06c-0.4,3-1.3,5.721-2.7,8.16c-1.4,2.44-3.03,4.35-4.89,5.73
		c-1.86,1.38-3.65,2.07-5.37,2.07C397.334,44.28,395.955,43.6,394.915,42.24z"/>
	<path fill="#808080" d="M432.234,20.31c0.76,0.5,1.141,1.17,1.141,2.01c0,1.881-1.371,3.591-4.11,5.13
		c-2.74,1.54-6.051,2.65-9.93,3.33c-0.16,0.96-0.24,2.001-0.24,3.12c0,2.44,0.53,4.401,1.59,5.88c1.06,1.48,2.61,2.22,4.65,2.22
		c2.199,0,4.14-0.66,5.82-1.98h0.06c0.12,0,0.229,0.06,0.33,0.18c0.1,0.12,0.109,0.24,0.03,0.36c-2.841,2.44-5.82,3.66-8.94,3.66
		c-2.64,0-4.62-0.82-5.939-2.46c-1.32-1.64-1.98-3.759-1.98-6.36c0-0.879,0.1-1.879,0.3-3c0.399-2.079,1.27-4.11,2.61-6.09
		c1.34-1.98,3.009-3.6,5.01-4.86c2-1.26,4.119-1.89,6.36-1.89C430.394,19.56,431.474,19.811,432.234,20.31z M428.754,23.28
		c0-0.68-0.25-1.2-0.75-1.56c-0.501-0.36-1.11-0.54-1.83-0.54c-1.641,0-3.04,0.81-4.2,2.43c-1.16,1.62-2,3.73-2.52,6.33
		c5.52-1.04,8.58-3,9.18-5.88C428.714,23.661,428.754,23.4,428.754,23.28z"/>
	<path fill="#808080" d="M436.854,43.32c-0.4-0.48-0.6-1.22-0.6-2.22c0-0.759,0.12-1.74,0.36-2.94l5.76-31.26
		c0.12-0.6,0.18-1.1,0.18-1.5c0-1.04-0.4-1.56-1.2-1.56c-0.64,0-1.56,0.3-2.76,0.9h-0.06c-0.201,0-0.33-0.11-0.391-0.33
		c-0.06-0.22-0.01-0.35,0.15-0.39l8.28-4.02h0.119c0.16,0,0.301,0.06,0.421,0.18c0.119,0.12,0.159,0.22,0.119,0.3l-6.899,37.68
		c-0.12,0.6-0.181,1.12-0.181,1.56c0,1.161,0.36,1.74,1.08,1.74c0.399,0,0.9-0.219,1.5-0.66c0.601-0.439,1.34-1.08,2.221-1.92
		c0.079-0.08,0.159-0.12,0.239-0.12c0.12,0,0.22,0.07,0.301,0.21c0.079,0.141,0.06,0.27-0.061,0.39
		c-1.36,1.601-2.57,2.781-3.63,3.54c-1.061,0.759-2.11,1.14-3.15,1.14C437.854,44.04,437.253,43.8,436.854,43.32z"/>
	<path fill="#808080" d="M450.204,41.79c-1.341-1.7-2.011-3.909-2.011-6.63c0-0.879,0.1-1.959,0.301-3.24
		c0.439-2.359,1.29-4.479,2.55-6.36c1.26-1.88,2.79-3.35,4.59-4.41c1.8-1.059,3.699-1.59,5.7-1.59c2.56,0,4.53,0.831,5.91,2.49
		c1.38,1.661,2.069,3.851,2.069,6.57c0,1.041-0.12,2.14-0.359,3.3c-0.521,2.52-1.45,4.72-2.79,6.6c-1.341,1.88-2.91,3.321-4.71,4.32
		c-1.801,1-3.641,1.5-5.521,1.5C453.453,44.34,451.543,43.491,450.204,41.79z M462.204,40.62c1.22-1.479,2.069-3.5,2.55-6.06
		c0.24-1.28,0.36-2.54,0.36-3.78c0-2.719-0.491-5.029-1.471-6.93c-0.98-1.899-2.37-2.85-4.17-2.85c-1.521,0-2.9,0.741-4.14,2.22
		c-1.24,1.48-2.101,3.52-2.58,6.12c-0.28,1.521-0.42,2.86-0.42,4.02c0,2.681,0.51,4.931,1.53,6.75c1.02,1.821,2.409,2.73,4.17,2.73
		C459.593,42.84,460.983,42.1,462.204,40.62z"/>
	<path fill="#808080" d="M491.363,21.51c1.02,1.061,1.529,2.61,1.529,4.65c0,0.64-0.06,1.36-0.18,2.16
		c-0.36,2.681-1.271,5.19-2.729,7.53c-1.461,2.34-3.21,4.21-5.25,5.61c-2.04,1.401-4.121,2.1-6.24,2.1c-1.24,0-2.28-0.06-3.12-0.18
		l-1.92,10.8c-0.12,0.68-0.18,1.239-0.18,1.68c0,0.68,0.159,1.17,0.479,1.47c0.319,0.3,0.819,0.45,1.5,0.45
		c0.24,0,0.72-0.04,1.44-0.12c0.159-0.041,0.27,0.049,0.33,0.27c0.06,0.219,0.009,0.35-0.15,0.39L466.193,60
		c-0.16,0.04-0.26-0.06-0.301-0.3c-0.039-0.24,0.021-0.381,0.181-0.42c0.88-0.16,1.521-0.37,1.92-0.63
		c0.4-0.261,0.7-0.67,0.899-1.23c0.201-0.561,0.42-1.5,0.66-2.82l5.101-28.56c-0.24,0.16-1.161,0.84-2.761,2.04l-0.119,0.06
		c-0.161,0-0.281-0.09-0.36-0.27c-0.081-0.18-0.061-0.31,0.06-0.39c1.08-0.96,2.221-1.86,3.42-2.7l0.78-4.44
		c0-0.08,0.34-0.369,1.021-0.87c0.68-0.5,1.29-1.05,1.83-1.65c0.539-0.6,0.89-1.26,1.05-1.98c0.039-0.159,0.169-0.219,0.39-0.18
		c0.22,0.04,0.31,0.141,0.271,0.3l-1.08,6.18c2.76-1.479,5.34-2.22,7.739-2.22C488.852,19.92,490.342,20.451,491.363,21.51z
		 M488.812,28.2c0-3.92-1.66-5.88-4.979-5.88c-1.56,0-3.2,0.4-4.92,1.2l-3.12,17.34c1.479,0.641,3,0.96,4.56,0.96
		c2.36,0,4.23-1.04,5.61-3.12c1.38-2.08,2.289-4.88,2.73-8.4C488.772,29.34,488.812,28.641,488.812,28.2z"/>
	<path fill="#808080" d="M512.272,20.31c0.76,0.5,1.141,1.17,1.141,2.01c0,1.881-1.371,3.591-4.11,5.13
		c-2.74,1.54-6.051,2.65-9.93,3.33c-0.16,0.96-0.24,2.001-0.24,3.12c0,2.44,0.53,4.401,1.59,5.88c1.06,1.48,2.61,2.22,4.65,2.22
		c2.199,0,4.14-0.66,5.82-1.98h0.06c0.12,0,0.229,0.06,0.33,0.18c0.1,0.12,0.109,0.24,0.03,0.36c-2.841,2.44-5.82,3.66-8.94,3.66
		c-2.64,0-4.62-0.82-5.939-2.46c-1.32-1.64-1.98-3.759-1.98-6.36c0-0.879,0.1-1.879,0.3-3c0.399-2.079,1.27-4.11,2.61-6.09
		c1.34-1.98,3.009-3.6,5.01-4.86c2-1.26,4.119-1.89,6.36-1.89C510.432,19.56,511.512,19.811,512.272,20.31z M508.792,23.28
		c0-0.68-0.25-1.2-0.75-1.56c-0.501-0.36-1.11-0.54-1.83-0.54c-1.641,0-3.04,0.81-4.2,2.43c-1.16,1.62-2,3.73-2.52,6.33
		c5.52-1.04,8.58-3,9.18-5.88C508.752,23.661,508.792,23.4,508.792,23.28z"/>
	<path fill="#808080" d="M533.091,20.7c0.76,0.6,1.14,1.3,1.14,2.1c0,0.6-0.21,1.131-0.63,1.59c-0.42,0.46-0.95,0.69-1.59,0.69
		c-0.44,0-0.801-0.09-1.08-0.27c-0.28-0.18-0.58-0.45-0.899-0.81c-0.201-0.2-0.411-0.39-0.63-0.57c-0.221-0.18-0.471-0.27-0.75-0.27
		c-0.801,0-1.771,1.13-2.91,3.39c-1.141,2.261-2.221,4.96-3.24,8.1c-1.021,3.141-1.771,5.91-2.25,8.31
		c-0.081,0.321-0.32,0.57-0.72,0.75c-0.4,0.18-0.94,0.27-1.62,0.27c-1.041,0-1.561-0.141-1.561-0.42c0.04-0.24,0.17-0.86,0.391-1.86
		c0.219-1,0.39-1.88,0.51-2.64l2.16-11.82c0.159-0.92,0.24-1.76,0.24-2.52c0-1.6-0.441-2.4-1.32-2.4c-0.84,0-2.021,0.76-3.54,2.28
		c-0.04,0.04-0.101,0.06-0.18,0.06c-0.12,0-0.221-0.069-0.301-0.21c-0.08-0.14-0.08-0.25,0-0.33c1.28-1.479,2.46-2.57,3.54-3.27
		c1.08-0.7,2.14-1.05,3.181-1.05c0.84,0,1.459,0.261,1.859,0.78c0.399,0.52,0.601,1.4,0.601,2.64c0,0.96-0.12,2.2-0.36,3.72
		l-1.26,7.02c1.279-4.119,2.689-7.509,4.229-10.17c1.54-2.66,3.069-3.99,4.59-3.99C531.532,19.8,532.332,20.1,533.091,20.7z"/>
</g>
</svg>
